<svg xmlns="http://www.w3.org/2000/svg" width="512" height="512" viewBox="0 0 512 512" version="1.1">
	<path d="M 56.500 70.229 C 40.420 75.676, 30.416 82.478, 20.599 94.638 C 13.651 103.247, 4 118.328, 4 120.579 C 4 121.638, 5.428 122, 9.606 122 C 28.524 122, 46.213 133.741, 55.427 152.415 C 60.969 163.645, 62.841 169.334, 67.469 189 C 70.985 203.946, 71.876 207.466, 75.439 220.500 C 78.920 233.232, 87.029 258.883, 89.033 263.500 C 89.510 264.600, 91.514 269.482, 93.487 274.349 C 101.067 293.057, 118.222 323.146, 127.781 334.500 C 128.707 335.600, 131.909 339.425, 134.896 343 C 143.327 353.090, 147.741 357.558, 158 366.393 C 168.011 375.013, 179.580 384, 180.667 384 C 181.021 384, 182.786 385.125, 184.589 386.500 C 186.392 387.875, 188.114 389, 188.416 389 C 188.718 389, 191.785 390.694, 195.232 392.764 C 203.127 397.505, 214.734 403.044, 226 407.447 C 228.475 408.414, 231.175 409.537, 232 409.942 C 233.364 410.611, 236.691 411.645, 250 415.534 C 255.649 417.185, 266.794 419.496, 278.643 421.474 C 289.334 423.258, 333.272 423.620, 342.066 421.997 C 345.055 421.445, 351.775 420.559, 357 420.028 C 366.864 419.026, 375.132 417.583, 406 411.472 C 410.675 410.547, 416.525 409.445, 419 409.023 C 421.475 408.602, 425.975 407.738, 429 407.105 C 432.025 406.471, 437.875 405.258, 442 404.409 C 459.995 400.706, 473.704 397.228, 478 395.276 C 479.925 394.401, 484.650 391.575, 488.500 388.994 C 492.350 386.414, 498.200 382.584, 501.500 380.482 C 510.836 374.537, 512.074 372.124, 507.105 369.554 C 505.513 368.731, 502.475 367.646, 500.355 367.144 C 498.235 366.642, 492.225 365.075, 487 363.662 C 473.044 359.887, 466.750 358.214, 454.500 355.021 C 448.450 353.444, 440.800 351.419, 437.500 350.521 C 434.200 349.623, 426.550 347.588, 420.500 345.999 C 414.450 344.410, 407.025 342.412, 404 341.559 C 399.231 340.215, 393.285 338.714, 378 334.995 C 376.075 334.527, 371.350 333.377, 367.500 332.440 C 354.228 329.210, 341.475 324.781, 332.567 320.308 C 319.180 313.586, 312.091 307.926, 304.745 298.094 C 299.991 291.730, 300.379 290.119, 307.099 288.326 C 317.058 285.668, 327.059 281.432, 338.806 274.896 C 348.146 269.699, 353.547 265.958, 365.500 256.405 C 374.046 249.575, 401.621 222.486, 407.649 215 C 409.199 213.075, 413.399 208.082, 416.984 203.904 C 420.568 199.726, 426.200 192.836, 429.500 188.593 C 432.800 184.349, 437.633 178.181, 440.241 174.884 C 445.354 168.419, 463.994 141.349, 468.392 134 C 469.874 131.525, 471.504 128.825, 472.014 128 C 474.598 123.827, 480.716 113.315, 481.326 112 C 481.709 111.175, 482.912 109.150, 484 107.500 C 489.465 99.212, 487.729 99.599, 478.409 108.748 C 457.800 128.979, 427.158 146.938, 388.500 161.446 C 385.200 162.684, 380.703 164.031, 378.508 164.439 C 376.312 164.848, 374.062 165.477, 373.508 165.837 C 372.474 166.509, 364.641 168.465, 357.463 169.843 C 355.243 170.269, 352.783 171.016, 351.995 171.503 C 351.208 171.990, 347.174 172.703, 343.032 173.089 C 338.889 173.474, 333.700 174.276, 331.500 174.871 C 326.518 176.218, 275.106 176.313, 266 174.992 C 260.243 174.157, 251.626 172.500, 242.500 170.475 C 235.044 168.820, 215.769 162.510, 208.500 159.344 C 196.363 154.058, 196.354 154.053, 183.224 146.274 C 176.472 142.273, 170.700 139, 170.398 139 C 166.951 139, 134.745 107.854, 123.749 93.887 C 112.782 79.957, 103.392 74.222, 84.736 70.062 C 78.837 68.747, 60.556 68.855, 56.500 70.229" stroke="none" fill="black" fill-rule="evenodd"/>
</svg>